<svg xmlns="http://www.w3.org/2000/svg" viewBox="0 0 24 24" width="24" height="24">
  <g transform="translate(2,2) scale(0.8333333333333334)">
    <svg viewBox="0 0 100 100" width="20" height="20">
      <path d="m76.471 21.889-6.002.743-6.002.743c-.832.103-.96 1.143-.232 1.871l3.138 3.138-11.3 11.3c-4.489-3.549-10.152-5.675-16.306-5.675-14.529 0-26.349 11.82-26.349 26.349 0 14.528 11.82 26.348 26.349 26.348 14.528 0 26.348-11.82 26.348-26.348 0-6.218-2.17-11.935-5.785-16.446l11.285-11.285 3.138 3.138c.729.729 1.768.6 1.871-.232l.743-6.002.743-6.002c.104-.831-.808-1.743-1.639-1.64zm-36.704 58.818c-11.22 0-20.349-9.128-20.349-20.348s9.129-20.349 20.349-20.349 20.348 9.128 20.348 20.349-9.128 20.348-20.348 20.348z"/>
    </svg>
  </g>
</svg>