<svg xmlns="http://www.w3.org/2000/svg" viewBox="0 0 24 24" width="24" height="24" data-family="Organic (Engraved)" data-render="filled"><g fill="currentColor" stroke="none"><!-- Generator: Adobe Illustrator 19.0.0, SVG Export Plug-In . SVG Version: 6.00 Build 0)  -->

<g>
	<g>
		<g>
			<path d="M174.028,24.232C140.602,0.612,104.204-6.017,71.55,5.563C28.78,20.701,0.04,61.376,0.04,106.772
				c0,50.764,36.052,94.998,85.725,105.167c8.838,1.775,17.516-3.886,19.335-12.76c1.819-8.864-3.895-17.516-12.76-19.335
				c-34.491-7.063-59.531-37.791-59.531-73.072c0-31.545,19.965-59.806,49.682-70.33c22.352-7.924,48.147-2.76,72.628,14.543
				c52.912,37.392,84.501,116.862,84.501,212.578v232.055c0,9.051,7.329,16.38,16.38,16.38c9.051,0,16.38-7.329,16.389-16.38
				V263.564C272.389,157.226,235.618,67.756,174.028,24.232z"/>
			<path d="M440.458,5.563c-25.271-8.935-52.53-6.966-78.866,5.732c-42.113,20.302-76.887,65.104-97.917,126.143
				c-2.946,8.554,1.606,17.871,10.16,20.826c8.536,2.928,17.88-1.606,20.826-10.16c17.889-51.953,47.481-91.058,81.173-107.305
				c18.27-8.82,36.833-10.32,53.684-4.357c29.717,10.524,49.682,38.785,49.682,70.33c0,35.28-25.041,66.009-59.54,73.063
				c-8.873,1.819-14.579,10.471-12.769,19.335c1.597,7.755,8.43,13.106,16.034,13.106c1.091,0,2.201-0.107,3.31-0.337
				c49.673-10.169,85.725-54.402,85.725-105.167C511.96,61.376,483.21,20.701,440.458,5.563z"/>
		</g>
	</g>
</g>
<g>
</g>
<g>
</g>
<g>
</g>
<g>
</g>
<g>
</g>
<g>
</g>
<g>
</g>
<g>
</g>
<g>
</g>
<g>
</g>
<g>
</g>
<g>
</g>
<g>
</g>
<g>
</g>
<g>
</g></g></svg>