<svg xmlns="http://www.w3.org/2000/svg" viewBox="0 0 24 24" width="24" height="24" data-family="Technical (Swiss)" data-render="stroke"><g fill="none" stroke="currentColor" stroke-width="1.35" stroke-linecap="round" stroke-linejoin="round"><path d="M10.957999999999998 17.026Q10.87 17.026 9.637999999999998 15.926Q8.405999999999999 14.826 8.23 14.826Q8.01 14.826 6.228 16.696Q4.577999999999999 18.39 4.138 18.412Q3.896 18.412 3.742 18.016Q3.632 17.686 4.039 17.081Q4.446 16.476 5.545999999999999 15.398Q6.954 14.034 6.954 13.814Q6.954 13.594000000000001 5.744 12.472000000000001Q4.842 11.614 4.688 11.361Q4.534 11.108 4.666 10.734000000000002Q4.842 10.294 5.347999999999999 10.481Q5.853999999999999 10.668 6.602 11.438Q7.02 11.878 7.4159999999999995 12.164Q7.811999999999999 12.45 7.965999999999999 12.45Q8.318 12.45 10.661 9.997Q13.004 7.5440000000000005 13.004 7.17Q13.004 7.016 12.443 6.917000000000001Q11.882 6.818000000000001 10.143999999999998 6.620000000000001Q9.242 6.532 9.066 6.444Q8.89 6.356 8.911999999999999 6.048Q8.956 5.6080000000000005 9.154 5.366000000000001Q9.308 5.190000000000001 9.506 5.146000000000001Q9.704 5.102 10.089 5.168Q10.474 5.234 10.914 5.333Q11.354 5.432 12.178999999999998 5.575Q13.004 5.718 13.905999999999999 5.806000000000001L15.225999999999999 5.938000000000001L15.578 7.324Q15.908 8.644 16.172 10.315999999999999Q16.436 11.988 16.314999999999998 12.120000000000001Q16.194 12.252 15.754 12.296Q15.468 12.34 15.347 12.142Q15.225999999999999 11.943999999999999 14.984 11.064Q14.654 9.788 14.654 9.238000000000001Q14.632 8.402000000000001 14.389999999999999 8.402000000000001Q14.059999999999999 8.402000000000001 12.366 10.118Q12.168 10.338000000000001 11.882 10.624Q9.506 13.088000000000001 9.396 13.429Q9.286 13.77 10.54 15.024000000000001Q11.442 15.948 11.562999999999999 16.168Q11.684 16.387999999999998 11.442 16.652Q11.111999999999998 17.026 10.957999999999998 17.026Z"/></g></svg>